<svg version="1.1" xmlns="http://www.w3.org/2000/svg" xmlns:xlink="http://www.w3.org/1999/xlink" role="img" width="263" height="90" viewbox="0 0 263 90"><title>GitGuide</title><desc>Generated by logo.svg, https://github.com/bubkoo/logo.svg</desc><path fill="#2b68a7" d="M22.50 70.99Q13.48 70.99 8.90 66.38Q4.33 61.78 4.33 53.84Q4.33 47.63 6.31 42.22Q8.30 36.82 11.94 32.72Q15.59 28.62 20.65 26.32Q25.70 24.02 31.85 24.02Q38.63 24.02 41.99 26.06Q45.35 28.11 45.35 30.93Q45.35 33.42 43.34 34.70Q41.32 35.98 38.57 35.98Q38.57 32.21 36.65 29.81Q34.73 27.41 30.50 27.41Q26.41 27.41 22.92 29.65Q19.43 31.89 16.81 35.73Q14.18 39.57 12.74 44.50Q11.30 49.42 11.30 54.86Q11.30 60.37 14.15 63.86Q17 67.34 23.66 67.34Q25.45 67.34 27.43 67.09Q29.42 66.83 30.89 66.45L33 56.27Q33.26 55.25 33.26 54.48Q33.26 52.82 31.88 52.37Q30.50 51.92 28.65 51.92L28.07 51.92L28.65 49.23L45.67 49.23L45.10 51.92L44.84 51.92Q43.05 51.92 41.54 52.72Q40.04 53.52 39.40 56.53L36.97 68.05Q33.45 69.52 30.02 70.26Q26.60 70.99 22.50 70.99ZM61.03 29.65Q59.43 29.65 58.44 28.78Q57.45 27.92 57.45 26.13Q57.45 24.14 58.50 22.90Q59.56 21.65 61.29 21.65Q62.82 21.65 63.85 22.51Q64.87 23.38 64.87 25.17Q64.87 27.66 63.66 28.66Q62.44 29.65 61.03 29.65M56.62 70.99Q54.06 70.99 52.68 69.20Q51.30 67.41 51.30 64.91Q51.30 63.57 51.56 61.71Q51.82 59.86 52.14 58Q52.46 56.14 52.71 54.86L55.21 43.09Q55.40 42.13 55.40 41.42Q55.40 39.70 54.34 39.22Q53.29 38.74 51.50 38.74L50.66 38.74L51.24 36.05L62.70 36.05L58.34 56.59Q58.22 57.30 57.96 58.64Q57.70 59.98 57.54 61.39Q57.38 62.80 57.38 63.70Q57.38 66.96 59.50 66.96Q60.52 66.96 61.70 66.48Q62.89 66 64.10 65.30L65.26 67.15Q63.85 68.43 61.42 69.71Q58.98 70.99 56.62 70.99ZM77.86 70.99Q70.89 70.99 70.89 63.50Q70.89 62.35 71.08 60.85Q71.27 59.34 71.53 58.13L75.43 39.70L70.57 39.70L71.14 37.14Q73.90 37.14 76.46 35.12Q79.02 33.10 80.94 28.18L83.88 28.18L82.22 36.05L89.96 36.05L89.19 39.70L81.45 39.70L77.54 57.94Q77.22 59.54 77 60.98Q76.78 62.42 76.78 63.44Q76.78 65.30 77.67 66.13Q78.57 66.96 80.17 66.96Q81.51 66.96 82.92 66.54Q84.33 66.13 85.42 65.55L86.50 67.92Q84.58 69.26 82.41 70.13Q80.23 70.99 77.86 70.99ZM111.21 70.99Q102.18 70.99 97.61 66.38Q93.03 61.78 93.03 53.84Q93.03 47.63 95.02 42.22Q97.00 36.82 100.65 32.72Q104.30 28.62 109.35 26.32Q114.41 24.02 120.55 24.02Q127.34 24.02 130.70 26.06Q134.06 28.11 134.06 30.93Q134.06 33.42 132.04 34.70Q130.02 35.98 127.27 35.98Q127.27 32.21 125.35 29.81Q123.43 27.41 119.21 27.41Q115.11 27.41 111.62 29.65Q108.14 31.89 105.51 35.73Q102.89 39.57 101.45 44.50Q100.01 49.42 100.01 54.86Q100.01 60.37 102.86 63.86Q105.70 67.34 112.36 67.34Q114.15 67.34 116.14 67.09Q118.12 66.83 119.59 66.45L121.70 56.27Q121.96 55.25 121.96 54.48Q121.96 52.82 120.58 52.37Q119.21 51.92 117.35 51.92L116.78 51.92L117.35 49.23L134.38 49.23L133.80 51.92L133.54 51.92Q131.75 51.92 130.25 52.72Q128.74 53.52 128.10 56.53L125.67 68.05Q122.15 69.52 118.73 70.26Q115.30 70.99 111.21 70.99ZM164.58 70.99Q162.02 70.99 160.62 69.20Q159.21 67.41 159.21 64.91Q159.21 64.21 159.30 63.18Q159.40 62.16 159.53 61.14L159.02 61.14Q157.22 64.08 155.50 66.26Q153.77 68.43 151.66 69.68Q149.54 70.93 146.66 70.93Q142.89 70.93 141.35 68.78Q139.82 66.64 139.82 63.82Q139.82 62.22 140.20 60.34Q140.58 58.45 140.97 56.78L143.46 45.58Q143.66 44.69 143.85 43.38Q144.04 42.06 144.04 41.74Q144.04 39.82 142.73 39.28Q141.42 38.74 139.56 38.74L139.05 38.74L139.62 36.05L151.53 36.05L147.30 55.18Q146.92 56.91 146.47 59.22Q146.02 61.52 146.02 62.93Q146.02 64.53 146.66 65.68Q147.30 66.83 149.16 66.83Q150.89 66.83 152.74 65.52Q154.60 64.21 156.33 62.03Q158.06 59.86 159.34 57.23Q160.62 54.61 161.19 51.98L164.52 36.05L170.73 36.05L166.31 56.59Q166.12 57.30 165.90 58.64Q165.67 59.98 165.51 61.39Q165.35 62.80 165.35 63.70Q165.35 66.96 167.46 66.96Q168.55 66.96 169.45 66.61Q170.34 66.26 171.56 65.55L172.71 67.41Q171.30 68.69 169.16 69.84Q167.02 70.99 164.58 70.99ZM188.07 29.65Q186.47 29.65 185.48 28.78Q184.49 27.92 184.49 26.13Q184.49 24.14 185.54 22.90Q186.60 21.65 188.33 21.65Q189.86 21.65 190.89 22.51Q191.91 23.38 191.91 25.17Q191.91 27.66 190.70 28.66Q189.48 29.65 188.07 29.65M183.66 70.99Q181.10 70.99 179.72 69.20Q178.34 67.41 178.34 64.91Q178.34 63.57 178.60 61.71Q178.86 59.86 179.18 58Q179.50 56.14 179.75 54.86L182.25 43.09Q182.44 42.13 182.44 41.42Q182.44 39.70 181.38 39.22Q180.33 38.74 178.54 38.74L177.70 38.74L178.28 36.05L189.74 36.05L185.38 56.59Q185.26 57.30 185 58.64Q184.74 59.98 184.58 61.39Q184.42 62.80 184.42 63.70Q184.42 66.96 186.54 66.96Q187.56 66.96 188.74 66.48Q189.93 66 191.14 65.30L192.30 67.15Q190.89 68.43 188.46 69.71Q186.02 70.99 183.66 70.99ZM204.20 70.99Q201.38 70.99 199.53 69.46Q197.67 67.92 196.81 65.26Q195.94 62.61 195.94 59.28Q195.94 56.27 196.74 52.98Q197.54 49.68 199.14 46.58Q200.74 43.47 203.05 40.94Q205.35 38.42 208.36 36.91Q211.37 35.41 215.02 35.41Q216.87 35.41 218.47 35.86Q220.07 36.30 221.35 37.01Q221.48 36.18 221.67 35.06Q221.86 33.94 221.99 33.36L222.63 30.29Q222.82 29.39 222.95 28.59Q223.08 27.79 223.08 27.41Q223.08 25.49 221.77 24.94Q220.46 24.40 218.60 24.40L218.09 24.40L218.66 21.71L230.44 21.71L223.02 56.59Q222.89 57.30 222.63 58.64Q222.38 59.98 222.22 61.39Q222.06 62.80 222.06 63.70Q222.06 66.96 224.17 66.96Q225.19 66.96 226.38 66.48Q227.56 66 228.78 65.30L229.93 67.15Q229.03 67.98 227.50 68.88Q225.96 69.78 224.23 70.38Q222.50 70.99 220.90 70.99Q218.60 70.99 217.26 69.58Q215.91 68.18 215.91 65.68Q215.91 64.85 216.07 63.57Q216.23 62.29 216.55 60.69L216.17 60.69Q213.93 65.62 210.95 68.30Q207.98 70.99 204.20 70.99M206.50 66.96Q208.17 66.96 209.93 65.68Q211.69 64.40 213.26 62.22Q214.82 60.05 216.04 57.36Q217.26 54.67 217.83 51.92L220.20 40.59Q219.50 39.44 218.15 38.86Q216.81 38.29 215.34 38.29Q212.78 38.29 210.73 39.73Q208.68 41.17 207.14 43.54Q205.61 45.90 204.55 48.72Q203.50 51.54 202.98 54.38Q202.47 57.23 202.47 59.54Q202.47 63.50 203.62 65.23Q204.78 66.96 206.50 66.96ZM245.48 70.99Q242.02 70.99 239.21 69.52Q236.39 68.05 234.70 65.14Q233 62.22 233 57.74Q233 54.22 234.22 50.32Q235.43 46.42 237.86 43.02Q240.30 39.63 243.85 37.52Q247.40 35.41 252.07 35.41Q256.10 35.41 258.34 37.36Q260.58 39.31 260.58 42.77Q260.58 46.16 258.18 49.07Q255.78 51.98 251.59 53.78Q247.40 55.57 242.02 55.57L239.78 55.57Q239.72 56.27 239.69 56.94Q239.66 57.62 239.66 58.26Q239.66 62.42 241.45 64.69Q243.24 66.96 246.70 66.96Q249.77 66.96 252.17 65.49Q254.57 64.02 255.91 62.35Q256.55 62.80 256.55 63.95Q256.55 65.36 255.37 66.99Q254.18 68.62 251.75 69.81Q249.32 70.99 245.48 70.99M240.36 52.62L241 52.62Q244.71 52.62 247.66 51.38Q250.60 50.13 252.30 47.92Q253.99 45.71 253.99 42.77Q253.99 38.48 250.28 38.48Q248.42 38.48 246.86 39.73Q245.29 40.98 244.01 43.06Q242.73 45.14 241.80 47.63Q240.87 50.13 240.36 52.62Z"></path></svg>